<svg xmlns="http://www.w3.org/2000/svg" xmlns:xlink="http://www.w3.org/1999/xlink" xmlns:fi="http://pattern.flaticon.com/" x="0" y="0" width="700" height="350" viewBox="0 0 700 350"><rect x="0px" y="0px" width="100%" height="100%" opacity="1" fill="#ffffff"/><defs><g transform="matrix(0.04154054155510429 0.022367984558157986 -0.022367984558157986 0.04154054155510429 8.091825408781746 174.63941731500486)" id="L1_0"><path d="M258.499,512c-5.186,0-10.008-2.68-12.745-7.091L102.869,274.652C85.289,246.26,76,213.534,76,180   C76,80.748,156.748,0,256,0s180,80.748,180,180c0,32.539-8.779,64.428-25.389,92.22L271.368,504.707   c-2.688,4.488-7.52,7.251-12.75,7.292C258.578,512,258.539,512,258.499,512z M256,30c-82.71,0-150,67.29-150,150   c0,27.95,7.734,55.214,22.368,78.846l129.905,209.34l126.594-211.368C398.689,233.688,406,207.121,406,180   C406,97.29,338.71,30,256,30z" fill="#fd003a"/><path d="M256,270c-31.397,0-60.044-15.977-76.631-42.737C170.62,213.117,166,196.778,166,180   c0-49.626,40.374-90,90-90s90,40.374,90,90c0,16.284-4.371,32.209-12.639,46.055C316.913,253.574,287.994,270,256,270z M256,120   c-33.084,0-60,26.916-60,60c0,11.2,3.069,22.082,8.875,31.47C215.945,229.33,235.06,240,256,240   c21.337,0,40.629-10.965,51.607-29.331c5.49-9.193,8.393-19.8,8.393-30.669C316,146.916,289.084,120,256,120z" fill="#fd003a"/></g><g transform="matrix(0.055589265776373624 -0.029257508930420985 0.029257508930420985 0.055589265776373624 289.2792581541987 88.2590839504647)" id="L1_3"><g><path d="M46,212c-3.839,0-7.678-1.464-10.606-4.393c-5.858-5.858-5.858-15.355,0-21.213l60-60   c5.857-5.858,15.355-5.858,21.213,0s5.858,15.355,0,21.213l-60,60C53.678,210.536,49.839,212,46,212z" fill="#fedb41"/><path d="M466,212c-3.839,0-7.678-1.464-10.606-4.393l-60-60c-5.858-5.858-5.858-15.355,0-21.213   c5.857-5.858,15.355-5.858,21.213,0l60,60c5.858,5.858,5.858,15.355,0,21.213C473.678,210.536,469.839,212,466,212z" fill="#fedb41"/></g><path d="M406,272c-8.284,0-15-6.716-15-15V30H121v227c0,8.284-6.716,15-15,15s-15-6.716-15-15V15  c0-8.284,6.716-15,15-15h300c8.284,0,15,6.716,15,15v242C421,265.284,414.284,272,406,272z" fill="#a4d9f5"/><g><path d="M255.853,270.027c-19.842,0-39.18-5.55-56.365-16.56C169.126,234.015,151,200.943,151,165   c0-57.897,47.103-105,105-105s105,47.103,105,105c0,24.813-20.187,45-45,45c-23.191,0-42.341-17.635-44.746-40.199   c-0.935-3.308-0.709-6.854,0.668-10.038l0.312-0.72c2.824-6.527,9.845-10.175,16.808-8.732C296.006,151.754,301,157.888,301,165   c0,0.076,0.001,0.152,0.002,0.228c0.006,0.139,0.01,0.281,0.012,0.42C301.354,173.62,307.946,180,316,180c8.271,0,15-6.729,15-15   c0-41.355-33.645-75-75-75s-75,33.645-75,75c0,25.669,12.961,49.298,34.671,63.207c22.249,14.255,49.843,15.608,75.703,3.709   c7.527-3.462,16.435-0.167,19.896,7.358c3.463,7.526,0.168,16.434-7.357,19.896C288.147,266.424,271.836,270.027,255.853,270.027z" fill="#1689fc"/><path d="M256,210c-24.813,0-45-20.187-45-45s20.187-45,45-45c24.813,0,45,20.187,45,45S280.813,210,256,210z    M256,150c-8.271,0-15,6.729-15,15s6.729,15,15,15c8.271,0,15-6.729,15-15S264.271,150,256,150z" fill="#1689fc"/></g><g><path d="M196,362c-3.839,0-7.678-1.464-10.606-4.394l-150-150c-5.858-5.858-5.858-15.355,0-21.213   c5.857-5.858,15.355-5.858,21.213,0l150,150c5.858,5.858,5.858,15.355,0,21.213C203.678,360.536,199.839,362,196,362z" fill="#fedb41"/><path d="M316,362c-3.839,0-7.678-1.464-10.606-4.394c-5.858-5.858-5.858-15.355,0-21.213l150-150   c5.857-5.858,15.355-5.858,21.213,0s5.858,15.355,0,21.213l-150,150C323.678,360.536,319.839,362,316,362z" fill="#fedb41"/></g><g><path d="M54.787,503.213c-3.839,0-7.678-1.464-10.606-4.394c-5.858-5.857-5.858-15.355,0-21.213   l141.213-141.214c5.857-5.858,15.355-5.858,21.213,0s5.858,15.355,0,21.213L65.394,498.82   C62.465,501.749,58.626,503.213,54.787,503.213z" fill="#fea832"/><path d="M457.213,503.213c-3.839,0-7.678-1.464-10.606-4.394L305.394,357.606   c-5.858-5.858-5.858-15.355,0-21.213s15.356-5.858,21.213,0L467.82,477.607c5.858,5.858,5.858,15.355,0,21.213   C464.891,501.749,461.051,503.213,457.213,503.213z" fill="#fea832"/><path d="M316,362H196c-8.284,0-15-6.716-15-15s6.716-15,15-15h120c8.284,0,15,6.716,15,15   S324.284,362,316,362z" fill="#fea832"/></g><path d="M436,512H76c-24.813,0-45-20.187-45-45V197c0-8.284,6.716-15,15-15s15,6.716,15,15v270  c0,8.271,6.729,15,15,15h360c8.271,0,15-6.729,15-15V197c0-8.284,6.716-15,15-15s15,6.716,15,15v270  C481,491.813,460.813,512,436,512z" fill="#fedb41"/></g><g transform="matrix(0.04430385111427099 0.013990689514923216 -0.013990689514923216 0.04430385111427099 45.23983063056697 25.076597598926284)" id="L1_4"><path d="M436.251,74.627C387.573,26.503,323.204,0,255,0C186.887,0,122.851,26.524,74.688,74.688   C26.524,122.851,0,186.887,0,255c0,68.204,26.503,132.573,74.627,181.251C122.918,485.099,186.976,512,255,512   c34.416,0,67.932-6.855,99.618-20.376c30.537-13.03,58.022-31.64,81.694-55.312s42.282-51.157,55.312-81.694   C505.145,322.932,512,289.416,512,255C512,186.976,485.099,122.918,436.251,74.627z M255,482C130.935,482,30,380.168,30,255   C30,130.935,130.935,30,255,30c125.168,0,227,100.935,227,225C482,380.168,380.168,482,255,482z" fill="#1689fc"/><path d="M255,90c-90.981,0-165,74.019-165,165c0,44.129,17.118,85.876,48.201,117.55   C169.493,404.438,210.973,422,255,422c36.874,0,74.175-12.393,102.339-34.001c6.573-5.043,7.813-14.459,2.77-21.032   s-14.46-7.813-21.032-2.77C316.048,381.866,285.403,392,255,392c-74.439,0-135-61.458-135-137c0-74.439,60.561-135,135-135   c75.542,0,137,60.561,137,135v15c0,16.542-13.458,30-30,30s-30-13.458-30-30c0-1.635-0.27-3.205-0.754-4.679   c0.489-3.396,0.754-6.84,0.754-10.321v-60c0-8.284-6.716-15-15-15s-15,6.716-15,15v0.951C288.454,185.622,272.068,180,255,180   c-41.355,0-75,33.645-75,75s33.645,75,75,75c20.029,0,39.133-7.717,53.792-21.731c1.378-1.318,2.68-2.687,3.943-4.081   C323.583,319.772,341.615,330,362,330c33.084,0,60-26.916,60-60v-15c0-43.989-17.542-85.449-49.394-116.744   C340.933,107.138,299.167,90,255,90z M255,300c-24.813,0-45-20.187-45-45s20.187-45,45-45c25.477,0,47,20.607,47,45   S280.477,300,255,300z" fill="#1689fc"/></g><g transform="matrix(0.05535028701131165 -0.008302542976130662 0.008302542976130662 0.05535028701131165 137.70487552321475 138.95577752699367)" id="L1_5"><g><path d="M441.514,467.112c-3.824,0-7.647-1.458-10.565-4.377L325.295,357.082   c-5.835-5.835-5.835-15.295,0-21.13c5.834-5.835,15.295-5.835,21.13,0l105.653,105.653c5.835,5.835,5.835,15.295,0,21.13   C449.162,465.653,445.337,467.112,441.514,467.112z" fill="#136ef1"/><path d="M166.48,192.413c-3.824,0-7.648-1.458-10.565-4.377L50.261,82.383   c-5.835-5.835-5.835-15.295,0-21.13c5.834-5.835,15.295-5.835,21.13,0l105.653,105.653c5.835,5.835,5.835,15.295,0,21.13   C174.128,190.954,170.304,192.413,166.48,192.413z" fill="#136ef1"/></g><path d="M335.861,512c-43.176,0-83.768-16.813-114.298-47.344L48.35,291.779  C17.809,261.239,0.996,220.647,0.996,177.472S17.809,93.704,48.34,63.174l23.051-23.052c17.478-17.477,45.915-17.476,63.392,0  l63.392,63.392c17.478,17.477,17.478,45.915,0,63.392l-28.814,28.814c-6.414,6.414-9.946,14.942-9.946,24.012  s3.532,17.598,9.946,24.012l100.209,99.872c0.006,0.006,0.012,0.012,0.018,0.018c6.414,6.414,14.942,9.946,24.012,9.946  s17.598-3.532,24.011-9.946l28.815-28.814c8.466-8.466,19.723-13.129,31.696-13.129c11.973,0,23.229,4.663,31.696,13.13  c0.06,0.06,0.12,0.121,0.178,0.181l63.116,65.305c17.375,17.486,17.341,45.847-0.102,63.29c-0.143,0.144-0.291,0.285-0.439,0.422  l-22.635,20.859C419.432,495.266,378.931,512,335.861,512z M103.087,56.884c-3.827,0-7.652,1.455-10.566,4.369L69.471,84.305  c-24.886,24.886-38.591,57.973-38.591,93.167s13.705,68.281,38.591,93.167l173.213,172.877  c51.383,51.382,134.972,51.382,186.344,0.01c0.143-0.144,0.291-0.285,0.439-0.422l22.589-20.816  c5.649-5.839,5.59-15.185-0.176-20.951c-0.061-0.06-0.12-0.121-0.178-0.181l-63.09-65.277c-2.813-2.775-6.534-4.302-10.49-4.302  c-3.991,0-7.743,1.555-10.566,4.377l-28.814,28.814c-12.057,12.058-28.089,18.698-45.143,18.698  c-17.044,0-33.069-6.634-45.125-18.681l-100.226-99.89c-24.91-24.91-24.91-65.411-0.018-90.303l28.814-28.814  c2.822-2.822,4.376-6.574,4.376-10.566s-1.554-7.743-4.376-10.566l-63.392-63.392C110.74,58.34,106.913,56.884,103.087,56.884z" fill="#17ace8"/><g><path d="M496.062,268.949c-8.252,0-14.942-6.69-14.942-14.942c0-123.582-100.542-224.125-224.125-224.125   c-8.252,0-14.942-6.69-14.942-14.942S248.744,0,256.996,0c67.848,0,131.635,26.421,179.61,74.397   c47.977,47.976,74.397,111.762,74.397,179.61C511.004,262.26,504.314,268.949,496.062,268.949z" fill="#1de8f1"/><path d="M436.296,268.949c-8.252,0-14.942-6.69-14.942-14.942c0-90.627-73.731-164.358-164.358-164.358   c-8.252,0-14.942-6.69-14.942-14.942s6.69-14.942,14.942-14.942c107.105,0,194.241,87.137,194.241,194.241   C451.237,262.26,444.547,268.949,436.296,268.949z" fill="#1de8f1"/><path d="M376.529,268.949c-8.252,0-14.942-6.69-14.942-14.942c0-57.672-46.92-104.591-104.591-104.591   c-8.252,0-14.942-6.69-14.942-14.942c0-8.252,6.69-14.942,14.942-14.942c74.149,0,134.475,60.325,134.475,134.475   C391.471,262.26,384.781,268.949,376.529,268.949z" fill="#1de8f1"/><path d="M316.763,268.949c-8.252,0-14.942-6.69-14.942-14.942c0-24.716-20.108-44.825-44.825-44.825   c-8.252,0-14.942-6.69-14.942-14.942c0-8.252,6.69-14.942,14.942-14.942c41.194,0,74.708,33.514,74.708,74.708   C331.704,262.26,325.014,268.949,316.763,268.949z" fill="#1de8f1"/></g></g><g transform="matrix(0.03128012784474357 -0.006702884539910067 0.006702884539910067 0.03128012784474357 126.27634882952867 249.70822571396263)" id="L1_7"><g><path d="M497,272h-90c-8.284,0-15-6.716-15-15s6.716-15,15-15h90c8.284,0,15,6.716,15,15   S505.284,272,497,272z" fill="#1de8f1"/><path d="M347.001,272H15c-8.284,0-15-6.716-15-15s6.716-15,15-15h332.001c8.284,0,15,6.716,15,15   S355.285,272,347.001,272z" fill="#1de8f1"/></g><path d="M491.624,157.382c-13.03-30.536-31.64-58.022-55.312-81.694s-51.157-42.281-81.694-55.311  C322.933,6.856,289.416,0,255,0C186.976,0,122.918,26.901,74.627,75.749C26.503,124.427,0,188.796,0,257  c0,68.113,26.524,132.149,74.688,180.312S186.887,512,255,512c68.204,0,132.573-26.503,181.252-74.627  C485.099,389.082,512,325.024,512,257C512,222.584,505.145,189.068,491.624,157.382z M255,482  c-97.307,0-180.375-62.095-211.685-148.738c7.432,5.834,15.756,11.368,24.958,16.54c40.698,22.875,96.048,37.523,155.854,41.244  c0.317,0.02,0.632,0.03,0.946,0.03c7.858,0,14.462-6.118,14.956-14.069c0.515-8.268-5.771-15.388-14.039-15.903  C116.089,354.265,30,308.537,30,257c0-34.614,39.656-69.576,101.029-89.069c7.896-2.508,12.263-10.941,9.755-18.837  c-2.508-7.896-10.943-12.264-18.837-9.755c-31.621,10.043-58.205,23.833-78.401,40.061C75.036,92.331,157.937,30,255,30  c98.375,0,182.322,62.908,213.759,150.604c-10.364-8.203-22.481-15.863-36.284-22.843C384.321,133.411,321.293,120,255,120  c-26.681,0-52.947,2.113-78.07,6.28c-8.173,1.355-13.699,9.079-12.344,17.252c1.355,8.172,9.082,13.699,17.252,12.344  C205.344,151.977,229.959,150,255,150c61.68,0,119.9,12.264,163.937,34.533C459.015,204.8,482,231.213,482,257  c0,23.673-19.142,47.328-53.898,66.609c-37.355,20.722-88.527,34.038-144.091,37.495c-8.269,0.514-14.554,7.634-14.039,15.903  c0.494,7.951,7.098,14.069,14.956,14.069c0.313,0,0.629-0.01,0.946-0.03c59.925-3.729,115.604-18.362,156.78-41.203  c9.661-5.359,18.379-11.101,26.119-17.161C437.348,419.626,353.39,482,255,482z" fill="#1689fc"/><g><path d="M255,362c-8.284,0-15-6.716-15-15V15c0-8.284,6.716-15,15-15s15,6.716,15,15v332   C270,355.284,263.284,362,255,362z" fill="#1de8f1"/><path d="M255,512c-8.284,0-15-6.716-15-15v-90c0-8.284,6.716-15,15-15s15,6.716,15,15v90   C270,505.284,263.284,512,255,512z" fill="#1de8f1"/><path d="M376.061,242.058c-7.858,0-14.462-6.117-14.956-14.069C354.311,118.818,306.712,30,255,30   c-30.139,0-60.223,30.801-80.476,82.393c-3.026,7.712-11.732,11.509-19.444,8.481c-7.711-3.027-11.509-11.732-8.481-19.444   C171.904,36.97,211.414,0,255,0c35.125,0,68.426,24.581,93.77,69.216c23.547,41.469,38.561,97.194,42.276,156.91   c0.515,8.268-5.771,15.388-14.039,15.903C376.689,242.048,376.374,242.058,376.061,242.058z" fill="#1de8f1"/><path d="M255,512c-75.701,0-135-112.009-135-255c0-32.74,3.251-66.702,9.153-95.63   c1.657-8.117,9.582-13.354,17.696-11.698c8.117,1.656,13.354,9.579,11.698,17.696C153.036,194.381,150,226.213,150,257   c0,61.823,11.92,119.71,33.563,162.997C203.266,459.401,229.303,482,255,482c23.971,0,48.022-18.859,67.724-53.103   c21.322-37.061,34.953-87.805,38.381-142.887c0.514-8.269,7.646-14.555,15.902-14.039c8.269,0.514,14.554,7.634,14.039,15.903   c-3.709,59.602-18.737,114.998-42.318,155.984C323.446,487.8,290.16,512,255,512z" fill="#1de8f1"/></g><g><path d="M377,302c-24.813,0-45-20.187-45-45s20.187-45,45-45s45,20.187,45,45S401.813,302,377,302z M377,242   c-8.271,0-15,6.729-15,15s6.729,15,15,15s15-6.729,15-15S385.271,242,377,242z" fill="#fcbf29"/><path d="M255,422c-24.813,0-45-20.187-45-45s20.187-45,45-45s45,20.187,45,45S279.813,422,255,422z M255,362   c-8.271,0-15,6.729-15,15s6.729,15,15,15s15-6.729,15-15S263.271,362,255,362z" fill="#fcbf29"/><path d="M150,180c-24.813,0-45-20.187-45-45s20.187-45,45-45s45,20.187,45,45S174.813,180,150,180z M150,120   c-8.271,0-15,6.729-15,15s6.729,15,15,15s15-6.729,15-15S158.271,120,150,120z" fill="#fcbf29"/></g></g><g transform="matrix(0.03516974330456723 0.03516974330456723 -0.03516974330456723 0.03516974330456723 302 246.99309142806158)" id="L1_8"><path d="M437.001,481c-2.911,0-5.812-0.846-8.321-2.519L342.458,421H195c-24.813,0-45-20.187-45-45v-90  c0-8.284,6.716-15,15-15s15,6.716,15,15v90c0,8.271,6.729,15,15,15h152c2.961,0,5.856,0.876,8.32,2.519L422,437.972V406  c0-8.284,6.716-15,15-15h30c8.271,0,15-6.729,15-15V196c0-8.271-6.729-15-15-15H347c-8.284,0-15-6.716-15-15s6.716-15,15-15h120  c24.813,0,45,20.187,45,45v180c0,24.813-20.187,45-45,45h-15v45c0,5.532-3.045,10.615-7.922,13.225  C441.86,480.412,439.427,481,437.001,481z" fill="#aa3dc8"/><path d="M74.999,361c-2.427,0-4.859-0.588-7.077-1.775C63.045,356.615,60,351.532,60,346v-45H45  c-24.813,0-45-20.187-45-45V76c0-24.813,20.187-45,45-45h272c24.813,0,45,20.187,45,45v180c0,24.813-20.187,45-45,45H169.542  L83.32,358.481C80.811,360.154,77.909,361,74.999,361z M45,61c-8.271,0-15,6.729-15,15v180c0,8.271,6.729,15,15,15h30  c8.284,0,15,6.716,15,15v31.972l66.68-44.453c2.464-1.643,5.359-2.519,8.32-2.519h152c8.271,0,15-6.729,15-15V76  c0-8.271-6.729-15-15-15H45z" fill="#fedb41"/><g><path d="M195,211H75c-8.284,0-15-6.716-15-15s6.716-15,15-15h120c8.284,0,15,6.716,15,15   S203.284,211,195,211z" fill="#994c0f"/><path d="M287,151H75c-8.284,0-15-6.716-15-15s6.716-15,15-15h212c8.284,0,15,6.716,15,15   S295.284,151,287,151z" fill="#994c0f"/></g></g><g transform="matrix(0.05895882241452985 0.00655098036746998 -0.00655098036746998 0.05895882241452985 195.58359243595268 -9.770509512191957)" id="L1_10"><path d="M467,512H45c-24.813,0-45-20.187-45-45V197c0-8.284,6.716-15,15-15s15,6.716,15,15v270  c0,8.271,6.729,15,15,15h422c8.271,0,15-6.729,15-15V197c0-8.284,6.716-15,15-15s15,6.716,15,15v270  C512,491.813,491.813,512,467,512z" fill="#a4d9f5"/><g><path d="M467,60h-30c-8.284,0-15,6.716-15,15s6.716,15,15,15h30c8.271,0,15,6.729,15,15v77H30v-77   c0-8.271,6.729-15,15-15h30c8.284,0,15-6.716,15-15s-6.716-15-15-15H45C20.187,60,0,80.187,0,105v92c0,8.284,6.716,15,15,15h482   c8.284,0,15-6.716,15-15v-92C512,80.187,491.813,60,467,60z" fill="#aa3dc8"/><path d="M227,90h-92c-8.284,0-15-6.716-15-15s6.716-15,15-15h92c8.284,0,15,6.716,15,15S235.284,90,227,90z" fill="#aa3dc8"/><path d="M377,90h-90c-8.284,0-15-6.716-15-15s6.716-15,15-15h90c8.284,0,15,6.716,15,15S385.284,90,377,90z" fill="#aa3dc8"/></g><path d="M437,242H75c-8.284,0-15,6.716-15,15v180c0,8.284,6.716,15,15,15h362c8.284,0,15-6.716,15-15V257  C452,248.716,445.284,242,437,242z M332,332h-60v-60h60V332z M362,272h60v60h-60V272z M242,332h-62v-60h62V332z M150,332H90v-60h60  V332z M90,362h60v60H90V362z M180,362h62v60h-62V362z M272,362h60v60h-60V362z M362,362h60v60h-60V362z" fill="#1de8f1"/><g><path d="M105,150c-24.813,0-45-20.187-45-45V45c0-24.813,20.187-45,45-45s45,20.187,45,45v60   C150,129.813,129.813,150,105,150z M105,30c-8.271,0-15,6.729-15,15v60c0,8.271,6.729,15,15,15s15-6.729,15-15V45   C120,36.729,113.271,30,105,30z" fill="#a4d9f5"/><path d="M257,150c-24.813,0-45-20.187-45-45V45c0-24.813,20.187-45,45-45s45,20.187,45,45v60   C302,129.813,281.813,150,257,150z M257,30c-8.271,0-15,6.729-15,15v60c0,8.271,6.729,15,15,15s15-6.729,15-15V45   C272,36.729,265.271,30,257,30z" fill="#a4d9f5"/><path d="M407,150c-24.813,0-45-20.187-45-45V45c0-24.813,20.187-45,45-45s45,20.187,45,45v60   C452,129.813,431.813,150,407,150z M407,30c-8.271,0-15,6.729-15,15v60c0,8.271,6.729,15,15,15s15-6.729,15-15V45   C422,36.729,415.271,30,407,30z" fill="#a4d9f5"/></g></g></defs><g fi:class="KUsePattern"><pattern id="pattern_L1_0" width="350" height="350" patternUnits="userSpaceOnUse"><use xlink:href="#L1_0" x="-350" y="-350"/><use xlink:href="#L1_0" x="0" y="-350"/><use xlink:href="#L1_0" x="350" y="-350"/><use xlink:href="#L1_0" x="-350" y="0"/><use xlink:href="#L1_0" x="0" y="0"/><use xlink:href="#L1_0" x="350" y="0"/><use xlink:href="#L1_0" x="-350" y="350"/><use xlink:href="#L1_0" x="0" y="350"/><use xlink:href="#L1_0" x="350" y="350"/></pattern><rect x="0" y="0" width="100%" height="100%" fill="url(#pattern_L1_0)"/></g><g fi:class="KUsePattern"><pattern id="pattern_L1_3" width="350" height="350" patternUnits="userSpaceOnUse"><use xlink:href="#L1_3" x="-350" y="-350"/><use xlink:href="#L1_3" x="0" y="-350"/><use xlink:href="#L1_3" x="350" y="-350"/><use xlink:href="#L1_3" x="-350" y="0"/><use xlink:href="#L1_3" x="0" y="0"/><use xlink:href="#L1_3" x="350" y="0"/><use xlink:href="#L1_3" x="-350" y="350"/><use xlink:href="#L1_3" x="0" y="350"/><use xlink:href="#L1_3" x="350" y="350"/></pattern><rect x="0" y="0" width="100%" height="100%" fill="url(#pattern_L1_3)"/></g><g fi:class="KUsePattern"><pattern id="pattern_L1_4" width="350" height="350" patternUnits="userSpaceOnUse"><use xlink:href="#L1_4" x="-350" y="-350"/><use xlink:href="#L1_4" x="0" y="-350"/><use xlink:href="#L1_4" x="350" y="-350"/><use xlink:href="#L1_4" x="-350" y="0"/><use xlink:href="#L1_4" x="0" y="0"/><use xlink:href="#L1_4" x="350" y="0"/><use xlink:href="#L1_4" x="-350" y="350"/><use xlink:href="#L1_4" x="0" y="350"/><use xlink:href="#L1_4" x="350" y="350"/></pattern><rect x="0" y="0" width="100%" height="100%" fill="url(#pattern_L1_4)"/></g><g fi:class="KUsePattern"><pattern id="pattern_L1_5" width="350" height="350" patternUnits="userSpaceOnUse"><use xlink:href="#L1_5" x="-350" y="-350"/><use xlink:href="#L1_5" x="0" y="-350"/><use xlink:href="#L1_5" x="350" y="-350"/><use xlink:href="#L1_5" x="-350" y="0"/><use xlink:href="#L1_5" x="0" y="0"/><use xlink:href="#L1_5" x="350" y="0"/><use xlink:href="#L1_5" x="-350" y="350"/><use xlink:href="#L1_5" x="0" y="350"/><use xlink:href="#L1_5" x="350" y="350"/></pattern><rect x="0" y="0" width="100%" height="100%" fill="url(#pattern_L1_5)"/></g><g fi:class="KUsePattern"><pattern id="pattern_L1_7" width="350" height="350" patternUnits="userSpaceOnUse"><use xlink:href="#L1_7" x="-350" y="-350"/><use xlink:href="#L1_7" x="0" y="-350"/><use xlink:href="#L1_7" x="350" y="-350"/><use xlink:href="#L1_7" x="-350" y="0"/><use xlink:href="#L1_7" x="0" y="0"/><use xlink:href="#L1_7" x="350" y="0"/><use xlink:href="#L1_7" x="-350" y="350"/><use xlink:href="#L1_7" x="0" y="350"/><use xlink:href="#L1_7" x="350" y="350"/></pattern><rect x="0" y="0" width="100%" height="100%" fill="url(#pattern_L1_7)"/></g><g fi:class="KUsePattern"><pattern id="pattern_L1_8" width="350" height="350" patternUnits="userSpaceOnUse"><use xlink:href="#L1_8" x="-350" y="-350"/><use xlink:href="#L1_8" x="0" y="-350"/><use xlink:href="#L1_8" x="350" y="-350"/><use xlink:href="#L1_8" x="-350" y="0"/><use xlink:href="#L1_8" x="0" y="0"/><use xlink:href="#L1_8" x="350" y="0"/><use xlink:href="#L1_8" x="-350" y="350"/><use xlink:href="#L1_8" x="0" y="350"/><use xlink:href="#L1_8" x="350" y="350"/></pattern><rect x="0" y="0" width="100%" height="100%" fill="url(#pattern_L1_8)"/></g><g fi:class="KUsePattern"><pattern id="pattern_L1_10" width="350" height="350" patternUnits="userSpaceOnUse"><use xlink:href="#L1_10" x="-350" y="-350"/><use xlink:href="#L1_10" x="0" y="-350"/><use xlink:href="#L1_10" x="350" y="-350"/><use xlink:href="#L1_10" x="-350" y="0"/><use xlink:href="#L1_10" x="0" y="0"/><use xlink:href="#L1_10" x="350" y="0"/><use xlink:href="#L1_10" x="-350" y="350"/><use xlink:href="#L1_10" x="0" y="350"/><use xlink:href="#L1_10" x="350" y="350"/></pattern><rect x="0" y="0" width="100%" height="100%" fill="url(#pattern_L1_10)"/></g></svg>